<?xml version="1.0" encoding="UTF-8" standalone="no"?> <!-- Created with Vectornator for iOS (http://vectornator.io/) --><!DOCTYPE svg PUBLIC "-//W3C//DTD SVG 1.1//EN" "http://www.w3.org/Graphics/SVG/1.1/DTD/svg11.dtd">
<svg height="100%" style="fill-rule:nonzero;clip-rule:evenodd;stroke-linecap:round;stroke-linejoin:round;" xmlns:xlink="http://www.w3.org/1999/xlink" xmlns="http://www.w3.org/2000/svg" xml:space="preserve" width="100%" xmlns:vectornator="http://vectornator.io" version="1.1" viewBox="0 0 1125 1350">
<metadata>
<vectornator:setting key="DimensionsVisible" value="0"/>
<vectornator:setting key="PencilOnly" value="0"/>
<vectornator:setting key="SnapToPoints" value="0"/>
<vectornator:setting key="OutlineMode" value="0"/>
<vectornator:setting key="CMYKEnabledKey" value="0"/>
<vectornator:setting key="RulersVisible" value="1"/>
<vectornator:setting key="SnapToEdges" value="0"/>
<vectornator:setting key="GuidesVisible" value="0"/>
<vectornator:setting key="DisplayWhiteBackground" value="0"/>
<vectornator:setting key="doHistoryDisabled" value="0"/>
<vectornator:setting key="SnapToGuides" value="1"/>
<vectornator:setting key="TimeLapseWatermarkDisabled" value="0"/>
<vectornator:setting key="Units" value="Points"/>
<vectornator:setting key="DynamicGuides" value="1"/>
<vectornator:setting key="IsolateActiveLayer" value="0"/>
<vectornator:setting key="SnapToGrid" value="0"/>
</metadata>
<defs/>
<g id="custom – 2" vectornator:layerName="custom – 2">
<path d="M791.445+535.952C791.445+520.751+803.767+508.429+818.968+508.429C834.169+508.429+846.491+520.751+846.491+535.952C846.491+551.153+834.169+563.475+818.968+563.475C803.767+563.475+791.445+551.153+791.445+535.952Z" opacity="1" fill="#7a7a81"/>
<path d="M902.795+867.303L885.885+808.661L880.129+810.461C880.129+810.461+886.965+854.353+897.758+865.506L902.795+867.303Z" opacity="1" fill="#2f2e41"/>
<path d="M838.396+552.501C838.396+552.501+836.237+575.527+841.274+582.001C846.311+588.475+838.036+601.069+838.036+601.069L822.926+619.058L800.62+608.986L797.382+590.278L799.541+577.326C799.541+577.326+807.096+569.771+803.858+556.099C800.62+542.427+838.396+552.501+838.396+552.501Z" opacity="1" fill="#ffb9b9"/>
<path d="M838.396+552.501C838.396+552.501+836.237+575.527+841.274+582.001C846.311+588.475+838.036+601.069+838.036+601.069L822.926+619.058L800.62+608.986L797.382+590.278L799.541+577.326C799.541+577.326+807.096+569.771+803.858+556.099C800.62+542.427+838.396+552.501+838.396+552.501Z" opacity="0.1" fill="#000000"/>
<path d="M825.443+983.151L825.443+997.9L805.656+1001.86L807.456+977.393L825.443+983.151Z" opacity="1" fill="#ffb9b9"/>
<path d="M766.081+977.394L770.399+997.901L761.764+1004.02L746.653+992.865L748.453+975.235L766.081+977.394Z" opacity="1" fill="#ffb9b9"/>
<path d="M803.857+1000.06C803.857+1000.06+811.412+987.289+825.443+995.294C825.443+995.294+827.961+1009.41+830.48+1010.49C832.999+1011.57+847.03+1032.08+830.48+1033.88C813.93+1035.68+805.656+1030.28+805.656+1030.28C805.656+1030.28+808.894+1033.07+803.856+1031.63C798.818+1030.19+800.978+1022.27+800.978+1022.27L803.857+1000.06Z" opacity="1" fill="#f2f2f2"/>
<path d="M754.569+991.426C754.569+991.426+765.722+999.341+767.521+995.743C769.32+992.145+772.198+992.505+772.198+992.505C772.198+992.505+782.272+1030.48+775.798+1032.28C771.628+1033.31+767.248+1033.08+763.206+1031.63C763.206+1031.63+754.571+1025.58+754.571+1030.26C754.571+1034.94+730.471+1034.6+720.393+1034.24C710.315+1033.88+715.716+1026.33+715.716+1026.33L729.028+1013.37L744.138+991.427C744.138+991.427+750.969+985.31+754.569+991.426Z" opacity="1" fill="#f2f2f2"/>
<path d="M860.701+750.736L845.595+895.725C845.595+895.725+837.32+984.225+835.881+985.668C834.442+987.111+825.088+991.784+804.581+985.668L809.258+869.821L800.623+797.866L780.835+847.515C780.835+847.515+776.158+980.991+772.92+980.991C769.682+980.991+749.894+987.467+745.22+979.552C740.546+971.637+741.263+886.371+741.263+886.371C741.263+886.371+743.422+751.816+759.252+747.498C775.082+743.18+860.701+750.736+860.701+750.736Z" opacity="1" fill="#3f3d56"/>
<path d="M794.143+540.988C794.143+527.278+805.257+516.164+818.967+516.164C832.677+516.164+843.791+527.278+843.791+540.988C843.791+554.698+832.677+565.812+818.967+565.812C805.257+565.812+794.143+554.698+794.143+540.988Z" opacity="1" fill="#ffb9b9"/>
<path d="M817.529+610.065C817.529+610.065+820.047+594.595+820.047+591.717C820.047+588.839+831.2+587.04+831.2+587.04C831.2+587.04+839.835+577.326+841.633+578.765C843.431+580.204+870.775+598.553+875.092+601.071C879.409+603.589+884.086+614.383+883.727+615.102C883.368+615.821+861.065+662.597+861.065+662.597C861.065+662.597+851.351+691.379+858.187+706.489C865.023+721.599+873.657+751.461+861.065+757.577C848.473+763.693+787.308+776.997+776.155+765.487C765.002+753.977+757.087+750.736+754.209+750.736C751.331+750.736+766.082+700.727+762.844+696.05C759.606+691.373+764.283+662.231+764.283+662.231L747.733+615.82C747.733+615.82+749.172+589.92+781.912+584.16L801.498+574.66L817.529+610.065Z" opacity="1" fill="#ffffff"/>
<path d="M884.806+757.213C884.806+757.213+886.606+774.482+886.606+779.519C886.606+784.556+895.241+814.057+882.649+817.655C870.057+821.253+871.136+778.44+871.136+778.44L871.136+756.493L884.806+757.213Z" opacity="1" fill="#ffb9b9"/>
<path d="M735.5+741.023C735.5+741.023+733.341+757.573+734.421+761.17C735.501+764.767+723.988+796.07+739.458+797.87C754.928+799.67+750.971+760.454+750.971+760.454L750.971+741.023L735.5+741.023Z" opacity="1" fill="#ffb9b9"/>
<path d="M888.044+861.547L877.611+806.142L874.372+806.142C869.77+812.075+868.546+819.96+871.134+827.009C875.451+839.241+879.049+861.547+879.049+861.547L888.044+861.547Z" opacity="1" fill="#2f2e41"/>
<path d="M878.331+610.785L883.731+615.102C883.731+615.102+890.931+729.51+889.131+738.145C887.331+746.78+895.607+759.012+888.411+760.091C881.215+761.17+872.581+765.847+868.623+762.969C864.665+760.091+863.946+749.657+862.507+747.139C861.068+744.621+858.55+714.759+858.55+714.759C858.55+714.759+850.995+684.898+855.672+662.592C860.349+640.286+864.666+617.62+864.666+617.62L878.331+610.785Z" opacity="1" fill="#ffffff"/>
<path d="M764.282+601.79L747.732+615.821L735.14+689.215C735.14+689.215+727.225+746.415+733.34+747.139C739.455+747.863+748.81+746.06+752.768+747.139C756.726+748.218+759.968+745.339+759.968+745.339C759.968+745.339+764.285+722.313+764.285+721.954C764.285+721.595+767.163+695.331+767.163+695.331L770.763+665.831L765.363+633.451L764.282+601.79Z" opacity="1" fill="#ffffff"/>
<path d="M842.353+941.416C842.353+941.416+844.692+948.133+847.915+957.278C849.415+961.531+851.099+966.312+852.837+971.187C853.956+974.339+855.093+977.53+856.212+980.645C857.996+985.628+859.731+990.413+861.245+994.521C863.245+999.943+864.868+1004.19+865.739+1006.17C869.696+1015.17+942.011+1000.77+947.767+997.18C953.523+993.586+954.967+981.35+955.682+964.08C955.682+963.99+955.689+963.9+955.689+963.81C955.783+960.324+954.889+955.132+953.408+949.041C952.667+945.997+951.775+942.731+950.782+939.341C949.451+934.79+947.94+930.019+946.36+925.27C939.575+904.87+931.577+884.932+931.577+884.932C931.577+884.932+917.546+875.218+912.509+868.742C907.472+862.266+879.77+857.23+879.77+857.23C871.855+857.59+853.87+888.17+846.67+897.525C839.47+906.88+842.353+941.416+842.353+941.416Z" opacity="1" fill="#f2f2f2"/>
<path d="M879.41+883.493C879.41+881.705+880.86+880.255+882.648+880.255C884.436+880.255+885.886+881.705+885.886+883.493C885.886+885.281+884.436+886.731+882.648+886.731C880.86+886.731+879.41+885.281+879.41+883.493Z" opacity="1" fill="#2f2e41"/>
<path d="M875.812+887.091C875.812+886.097+876.617+885.292+877.611+885.292C878.605+885.292+879.41+886.097+879.41+887.091C879.41+888.085+878.605+888.89+877.611+888.89C876.617+888.89+875.812+888.085+875.812+887.091Z" opacity="1" fill="#2f2e41"/>
<path d="M847.915+957.279C849.415+961.532+851.099+966.313+852.837+971.188L950.782+939.342C949.451+934.791+947.94+930.02+946.36+925.271L847.915+957.279Z" opacity="1" fill="#3f3d56"/>
<path d="M856.212+980.647C857.996+985.63+859.731+990.415+861.245+994.523L955.689+963.813C955.783+960.327+954.889+955.135+953.408+949.044L856.212+980.647Z" opacity="1" fill="#3f3d56"/>
<path stroke="#2f2e41" stroke-width="3" d="M882.648+884.213C882.648+884.213+875.448+915.873+879.77+943.936C884.092+971.999+868.977+998.262+868.977+998.262" fill="none" stroke-linecap="butt" opacity="1" stroke-linejoin="miter"/>
<path stroke="#2f2e41" stroke-width="3" d="M877.61+886.732C877.61+886.732+891.641+937.82+892.001+945.015C892.361+952.21+898.117+1003.66+905.313+1009.05" fill="none" stroke-linecap="butt" opacity="1" stroke-linejoin="miter"/>
<path d="M838.026+525.841C838.026+525.841+843.645+511.231+835.497+506.455L833.249+512.917C833.249+512.917+812.739+500.555+807.401+503.364L812.458+510.107C812.458+510.107+788.577+510.107+786.891+519.379L795.32+519.66C795.32+519.66+786.329+525.56+786.048+535.113L804.029+536.237L795.319+541.294C795.319+541.294+827.91+545.794+835.777+532.865L838.026+525.841Z" opacity="1" fill="#7a7a81"/>
<path d="M842.892+526.418C842.892+526.418+836.416+539.37+827.781+536.132C819.146+532.894+827.781+521.021+827.781+521.021L833.537+518.143L842.892+526.418Z" opacity="1" fill="#7a7a81"/>
<path d="M789+276.347L789+277.702C788.969+281.102+788.872+284.489+788.707+287.864C782.609+407.673+684.096+501.916+564.134+502.7C444.172+503.485+344.434+410.539+336.77+290.82C336.462+286.031+336.308+281.207+336.308+276.346C336.227+229.466+350.776+183.729+377.928+145.512C380.099+142.433+382.358+139.41+384.703+136.443C386.32+134.38+387.983+132.363+389.661+130.361C469.14+36.204+609.327+22.901+705.098+100.428C707.823+102.628+710.498+104.909+713.12+107.234C715.214+109.097+717.272+111.002+719.294+112.947C759.121+151.043+783.635+202.393+788.214+257.315C788.738+263.603+789+269.947+789+276.347Z" opacity="1" fill="#03dac5"/>
<path d="M384.703+136.448C384.814+136.495+384.918+136.557+385.011+136.633C386.227+137.633+384.703+139.559+384.888+141.145C385.104+143.178+387.814+143.624+389.861+143.824C391.909+144.04+394.496+145.687+393.526+147.504C388.383+149.275+383.179+147.535+377.926+145.518C350.774+183.735+336.225+229.472+336.306+276.352C336.306+281.219+336.46+286.043+336.768+290.826C337.198+291.14+337.669+291.394+338.168+291.58C339.708+292.165+341.494+292.057+342.91+292.889C344.034+293.551+344.788+294.721+345.91+295.337C349.128+297.092+353.593+293.72+356.596+295.814C357.372+296.521+358.106+297.271+358.796+298.062C361.568+300.462+366.125+298.847+369.328+300.649C371.391+301.804+372.454+304.113+373.562+306.208C376.318+311.443+380.783+316.586+386.681+317.002C388.541+316.917+390.405+316.979+392.255+317.187C394.072+317.603+395.855+319.187+395.565+321.021C395.057+324.178+396.612+327.627+396.196+330.783C395.441+336.557+387.265+339.083+386.572+344.856C386.569+346.126+386.497+347.394+386.356+348.656C385.986+350.165+384.847+351.397+384.447+352.906C383.677+355.755+385.725+358.606+387.958+360.513C390.206+362.438+392.885+364.101+394.117+366.78C395.41+369.629+394.779+372.939+395.195+376.034C396.119+382.794+401.955+387.798+407.96+391.034C409.884+391.838+411.593+393.083+412.949+394.668C414.489+396.901+414.335+399.842+414.858+402.505C416.121+409.018+421.602+414.392+421.758+421.028C421.866+425.755+419.248+430.036+417.678+434.486C416.063+439.151+415.583+444.134+416.278+449.021C425.057+456.467+434.39+463.236+444.194+469.269C444.727+468.481+445.118+467.605+445.349+466.682C445.732+464.591+444.782+462.481+442.962+461.382C444.617+460.757+446.122+459.792+447.381+458.549C448.649+457.245+448.969+455.288+448.181+453.649C450.891+453.988+454.109+454.157+455.895+452.078C457.327+450.415+457.235+447.921+456.665+445.811C455.883+443.76+455.366+441.618+455.125+439.436C461.404+439.742+467.697+439.531+473.941+438.805C473.037+435.759+470.983+433.186+468.213+431.63C471.046+431.153+473.613+427.765+474.513+425.04C475.285+422.259+475.328+419.327+474.636+416.525C474.422+415.805+474.39+415.043+474.544+414.308C475+413.332+475.8+412.558+476.792+412.137C481.473+409.442+486.154+406.753+490.835+404.069C491.67+403.648+492.43+403.091+493.083+402.421C494.546+400.681+494.33+398.079+493.576+395.939C492.822+393.799+491.62+391.782+491.328+389.534C490.466+382.805+497.672+377.97+500.105+371.627C500.932+369.095+501.378+366.454+501.429+363.79C501.629+360.926+501.645+357.615+499.458+355.783C497.349+354.012+494.069+354.413+491.867+352.765C489.85+351.256+489.157+348.346+486.955+347.129C484.955+346.02+482.455+346.729+480.226+346.205C476.315+345.297+473.851+340.785+469.848+340.369C467.6+340.123+465.048+341.231+463.196+339.922C461.564+338.752+461.502+336.422+461.196+334.456C460.076+328.169+455.162+323.243+448.878+322.107C446.553+321.737+444.028+321.876+442.041+320.598C440.041+319.305+439.131+316.887+437.541+315.086C435.016+312.207+431.012+311.175+427.271+310.297C422.19+309.111+417.114+307.92+412.043+306.725C409.348+306.078+405.869+305.74+404.406+308.111C403.973+309.013+403.672+309.972+403.513+310.96C402.385+314.605+399.044+317.114+395.229+317.181C393.956+315.007+391.893+313.408+389.47+312.716C387.887+312.45+386.323+312.08+384.789+311.607C383.17+310.814+381.949+309.389+381.413+307.667C380.877+305.946+381.073+304.079+381.956+302.507C383.751+299.295+383.178+295.28+380.556+292.699C377.969+290.374+374.228+289.804+370.748+290.035C369.84+288.049+371.364+285.816+372.996+284.369C374.644+282.937+376.63+281.52+376.984+279.369C377.554+275.982+373.227+273.41+369.947+274.411C366.667+275.427+364.573+278.611+363.187+281.756C362.515+283.61+361.599+285.365+360.462+286.976C359.275+288.601+357.276+289.423+355.289+289.102C352.579+288.409+351.547+285.191+350.947+282.481C349.985+278.859+349.499+275.128+349.5+271.381C349.524+267.597+351.027+263.972+353.688+261.281C358.169+257.154+365.067+257.555+371.118+258.217C369.777+256.428+369.975+253.922+371.58+252.366C373.224+250.906+375.483+250.353+377.616+250.888C379.443+251.263+381.089+252.244+382.289+253.671C384.013+255.765+384.506+258.614+385.8+260.985C387.109+263.372+390.034+265.404+392.421+264.126C394.5+263.017+394.821+260.153+394.315+257.859C393.791+255.58+392.698+253.348+392.883+251.007C393.237+246.557+397.872+243.862+401.952+242.03C406.032+240.198+410.698+237.719+411.345+233.284C411.375+232.422+411.541+231.569+411.838+230.759C412.29+230.036+412.921+229.442+413.67+229.035C425.57+221.167+437.69+213.191+451.302+208.895C452.01+208.664+452.087+208.91+452.811+208.741C453.827+208.156+453.15+206.541+452.18+205.892C451.21+205.243+449.917+204.737+449.67+203.598C449.501+202.767+449.993+201.935+450.117+201.088C450.182+200.049+449.728+199.046+448.904+198.411C448.08+197.775+446.994+197.59+446.006+197.916C444.913+196.469+447.068+194.79+448.824+194.298C454.08+192.858+459.474+191.98+464.915+191.68C465.543+191.576+466.187+191.685+466.747+191.988C467.577+192.79+467.638+194.1+466.886+194.975C466.145+195.798+465.325+196.546+464.438+197.208C462.637+198.957+461.961+201.564+462.683+203.968C465.532+205.415+468.611+206.909+471.768+206.401C474.909+205.893+477.696+202.351+476.218+199.534C474.848+196.901+470.706+196.3+469.997+193.421C469.166+190.049+473.939+187.046+472.861+183.751C472.399+182.304+470.952+181.441+469.843+180.41C467.173+177.781+466.385+173.786+467.857+170.34C464.2+170.979+460.459+169.809+457.818+167.199C455.418+164.782+453.507+160.948+450.088+161.071C446.962+161.163+444.268+164.813+441.342+163.704C440.618+163.427+439.864+162.873+439.171+163.196C438.708+163.494+438.408+163.988+438.355+164.536C437.616+168.093+438.894+172.142+436.955+175.222C434.846+178.563+429.964+179.022+427.408+182.043C426.022+183.675+425.483+185.877+424.208+187.602C422.933+189.327+420.235+190.435+418.696+188.926C420.249+185.742+419.393+181.908+416.633+179.687C415.215+178.756+413.683+178.011+412.075+177.47C410.278+176.712+408.568+175.762+406.975+174.637C406.182+174.154+405.537+173.462+405.112+172.637C404.775+171.599+404.819+170.474+405.235+169.465C406.824+164.933+410.787+161.651+415.535+160.935C417.567+160.658+419.935+160.75+421.294+159.195C422.002+158.379+422.372+157.132+423.419+156.808C424.079+156.67+424.765+156.751+425.375+157.039C427.916+157.932+430.441+158.825+432.981+159.718C433.828+160.107+434.764+160.261+435.691+160.165C436.645+160.042+437.339+159.199+437.277+158.24C437.031+156.977+435.091+156.377+435.277+155.099C435.367+154.681+435.588+154.304+435.908+154.021C441.468+148.107+449.379+144.984+457.48+145.506C458.435+147.092+456.926+148.955+455.648+150.295C454.385+151.65+453.369+154.052+454.909+155.084C455.53+155.41+456.225+155.569+456.926+155.546C458.798+155.797+460.618+156.348+462.315+157.178C464.948+158.317+467.535+159.578+470.06+160.935C469.688+159.284+469.752+157.565+470.245+155.946C470.821+154.301+472.552+153.362+474.245+153.775C475.754+154.36+476.524+156.362+478.145+156.547C480.285+156.793+481.132+153.621+480.239+151.647C479.346+149.673+477.56+148.047+477.421+145.873C477.313+144.426+477.868+142.624+476.713+141.746C476.303+141.474+475.833+141.305+475.343+141.253C465.676+139.482+456.001+137.706+446.318+135.925C444.593+135.602+442.118+135.848+442.037+137.588C441.991+138.573+442.868+139.544+442.484+140.437C442.068+141.392+440.713+141.315+439.728+141.653C438.207+142.343+437.327+143.958+437.572+145.61C437.835+147.211+438.456+148.732+439.389+150.06C437.495+149.275+434.646+149.136+432.753+148.336C432.477+146.143+431.918+143.995+431.09+141.946C430.994+141.286+430.611+140.702+430.044+140.351C429.476+140+428.782+139.919+428.149+140.129C425.655+140.514+423.16+140.883+420.666+141.268C420.04+141.298+419.44+141.53+418.957+141.93C417.987+142.962+418.942+144.609+418.911+146.03C418.726+147.653+417.533+148.982+415.939+149.34C414.372+149.658+412.754+149.637+411.196+149.278L400.726+147.661C403.811+146.677+406.555+144.839+408.64+142.361C410.026+140.729+410.765+137.68+408.763+136.91C408.172+136.747+407.555+136.7+406.946+136.771C402.204+136.802+398.462+132.845+394.027+131.171C392.632+130.651+391.157+130.38+389.669+130.371L384.703+136.448Z" opacity="1" fill="#3f3d56"/>
<path d="M788.707+287.869C787.604+289.349+785.839+290.186+783.995+290.102C779.176+289.686+777.143+282.742+772.37+281.957C771.948+281.849+771.501+281.892+771.107+282.08C770.399+282.465+770.276+283.42+770.229+284.22C770.029+288.192+769.859+292.32+771.415+295.984C773.678+301.342+779.545+305.838+778.315+311.52C771.694+308.456+768.245+301.02+766.69+293.89C765.118+286.76+764.868+279.277+762.068+272.532C759.928+275.257+755.462+273.009+753.522+270.145C751.674+267.435+750.535+264.294+748.749+261.538C746.963+258.797+744.222+256.338+740.958+256.18C737.524+256.026+734.537+258.38+731.92+260.614C729.643+262.296+727.731+264.422+726.3+266.865C724.468+270.565+724.945+274.903+724.853+279.014C724.761+283.448+723.821+288.145+720.788+291.414C717.755+294.663+712.165+295.802+708.824+292.861C707.209+291.177+706.058+289.103+705.483+286.841C701.851+276.256+698.828+265.472+696.429+254.541C695.875+257.035+693.673+260.254+691.579+258.791C691.109+258.39+690.73+257.892+690.468+257.332C686.557+250.726+679.335+246.754+672.022+244.367C664.722+241.996+657.04+240.887+649.822+238.267C645.772+236.799+641.903+234.875+638.288+232.532C636.418+235.287+636.206+238.843+637.734+241.801C639.401+244.724+642.826+246.161+646.08+245.301C647.68+244.777+649.036+243.669+650.622+243.114C652.208+242.575+654.348+242.837+655.041+244.377C655.718+245.84+654.702+247.611+655.21+249.15C655.965+251.475+659.491+251.66+660.722+253.785C661.46+255.509+660.993+257.512+659.568+258.732C658.151+259.887+656.587+260.85+654.918+261.596C649.745+264.475+646.064+269.387+641.538+273.206C637.011+277.04+630.621+279.827+625.232+277.379C626.51+270.866+618.765+266.093+617.332+259.61C616.855+257.47+617.101+255.21+616.439+253.128C615.469+250.11+612.79+248.047+610.603+245.768C605.236+240.116+602.377+232.538+602.673+224.75C602.796+222.071+603.289+219.35+602.673+216.728C602.073+214.128+599.901+211.601+597.222+211.708C591.109+211.985+583.395+212.447+580.192+207.227C579.037+205.364+578.544+202.638+580.207+201.207C581.52+200.375+583.111+200.103+584.626+200.452C589.226+200.899+593.818+201.36+598.426+201.807C601.644+202.115+605.126+202.377+607.896+200.698C610.666+199.019+611.869+194.539+609.296+192.553C607.433+191.106+604.076+191.183+603.522+188.888C603.075+186.963+605.2+184.788+604.045+183.175C603.229+182.036+601.381+182.344+600.257+183.206C599.276+184.226+598.209+185.16+597.068+185.998C594.868+187.138+592.249+186.044+589.877+185.305C587.505+184.566+584.334+184.505+583.194+186.705C581.901+189.153+584.318+192.387+583.055+194.85C581.361+198.099+575.664+196.25+573.293+199.05C570.583+202.25+575.141+207.057+574.232+211.15C571.853+212.33+569.028+212.172+566.795+210.734C564.6+209.241+563.405+206.661+563.685+204.021C563.901+202.173+564.871+200.279+564.224+198.539C563.527+197.195+562.375+196.142+560.975+195.567C556.508+193.088+552.042+190.619+547.575+188.161C546.328+190.471+547.898+193.319+549.869+195.061C551.824+196.786+554.288+198.094+555.582+200.373C557.282+203.651+556.135+207.687+552.965+209.581C552.574+209.85+552.084+209.935+551.625+209.812C551.194+209.559+550.883+209.142+550.763+208.657C548.407+202.606+544.85+196.647+539.184+193.49C533.502+190.318+525.357+190.98+521.631+196.29C520.753+197.553+520.153+199+519.383+200.34C515.303+207.44+506.526+210.795+498.334+210.579C497.533+210.63+496.734+210.443+496.04+210.04C494.716+209.132+494.777+207.191+494.978+205.59C495.271+203.327+495.548+201.078+495.84+198.815C495.847+197.433+496.382+196.106+497.334+195.104C498.858+193.904+501.045+194.658+502.985+194.627C505.984+194.494+508.577+192.494+509.467+189.627C510.263+186.748+509.397+183.665+507.219+181.62C506.341+180.789+505.156+179.742+505.619+178.62C506+177.994+506.636+177.566+507.359+177.45C510.823+176.45+514.504+176.187+517.906+174.986C521.324+173.8+524.635+171.368+525.451+167.841C525.697+166.763+525.805+165.454+526.775+164.915C527.265+164.718+527.787+164.614+528.315+164.607C532.152+164.057+534.937+160.671+534.736+156.8C536.368+155.661+538.662+156.507+540.248+157.724C541.819+158.94+543.22+160.542+545.148+161.065C548.736+162.05+552.2+158.865+555.926+158.848C557.497+158.848+559.113+159.402+560.576+158.863C562.07+158.324+562.963+156.846+564.102+155.753C565.257+154.644+567.259+153.982+568.321+155.168C568.013+152.935+567.721+150.718+567.413+148.501C571.083+149.425+574.974+148.718+578.084+146.561C574.204+145.252+570.339+143.943+566.459+142.635C566.051+142.535+565.676+142.333+565.366+142.05C564.519+141.142+565.366+139.725+566.043+138.693C567.691+136.214+567.968+132.134+565.258+130.902C563.41+130.055+561.301+131.071+559.53+132.057C556.697+133.628+553.864+135.214+551.03+136.784C550.768+138.401+552.739+139.325+553.956+140.402C555.473+141.748+556.006+143.888+555.297+145.787C554.588+147.687+552.784+148.955+550.756+148.978C551.886+150.453+552.288+152.361+551.849+154.167L546.136+154.583C545.495+154.711+544.83+154.578+544.288+154.213C543.672+153.674+543.764+152.719+543.61+151.919C543.091+149.961+541.433+148.516+539.422+148.27C537.46+148.049+535.474+148.233+533.586+148.809C532.765+149.098+531.867+149.076+531.061+148.747C530.604+148.445+530.257+148.001+530.075+147.484C529.393+145.336+529.884+142.989+531.369+141.294C532.848+139.652+534.477+138.152+536.235+136.813C540.219+133.325+543.147+128.791+544.688+123.725C547.829+122.401+551.078+120.615+554.235+119.291C556.773+118.115+559.432+117.222+562.165+116.627C564.737+116.234+567.343+116.11+569.941+116.257C573.482+116.319+577.041+116.38+580.581+116.457C583.742+116.324+586.901+116.779+589.897+117.797C592.807+118.997+595.379+121.597+595.579+124.741C595.702+125.469+595.44+126.208+594.886+126.696C594.477+126.922+594.013+127.029+593.546+127.004C590.605+127.096+589.358+127.835+586.417+127.943C588.28+129.929+590.374+132.023+593.084+132.378C597.857+132.994+601.291+128.051+603.493+123.755C603.653+126.031+605.602+127.763+607.881+127.655C609.06+127.452+610.186+127.012+611.191+126.362C620.662+121.186+631.27+118.445+642.063+118.386C641.843+116.693+642.941+115.109+644.603+114.721C646.803+114.29+648.776+116.184+649.838+118.155C650.885+120.126+651.547+122.405+653.238+123.883C654.916+125.361+658.165+125.283+658.827+123.159C659.474+121.111+657.333+119.359+655.563+118.139C653.777+116.939+651.914+114.705+653.115+112.919C662.169+110.902+671.3+108.9+680.584+108.5C682.162+108.548+683.733+108.276+685.203+107.7C686.698+107.067+687.583+105.509+687.359+103.9C683.215+104.866+678.898+103.237+676.427+99.773C685.958+98.988+695.936+98.295+705.097+100.435L713.119+107.241C711.595+108.827+709.562+110.321+710.671+111.907C711.412+112.645+712.451+113.003+713.489+112.877C715.429+112.908+717.369+112.954+719.289+112.954C759.116+151.05+783.63+202.399+788.209+257.322C784.975+257.199+782.004+261.295+782.419+264.867C782.912+269.009+785.899+272.335+788.039+275.907C788.393+276.487+788.712+277.088+788.994+277.707L788.707+287.869Z" opacity="1" fill="#3f3d56"/>
<path d="M578.101+66.3712C562.978+66.5587+550.87+78.9703+551.057+94.0933C551.244+109.215+579.242+158.537+579.242+158.537C579.242+158.537+606.01+108.537+605.822+93.4138C605.635+78.2908+593.224+66.1828+578.101+66.3698L578.101+66.3712ZM578.605+107.111C571.596+107.198+565.844+101.587+565.758+94.5782C565.671+87.5696+571.282+81.8177+578.291+81.7311C585.299+81.6444+591.051+87.2558+591.138+94.2644C591.224+101.273+585.613+107.024+578.605+107.111Z" opacity="1" fill="#ffffff"/>
<path d="M466.908+262.283C451.785+262.471+439.677+274.882+439.864+290.005C440.051+305.127+468.049+354.449+468.049+354.449C468.049+354.449+494.817+304.449+494.629+289.326C494.442+274.203+482.031+262.095+466.908+262.282L466.908+262.283ZM467.412+303.023C460.403+303.11+454.651+297.499+454.564+290.49C454.478+283.482+460.089+277.73+467.098+277.643C474.106+277.556+479.858+283.168+479.945+290.176C480.031+297.185+474.42+302.936+467.412+303.023Z" opacity="1" fill="#ffffff"/>
<path d="M460.289+90.1982C445.166+90.3857+433.058+102.797+433.245+117.92C433.432+133.042+461.43+182.364+461.43+182.364C461.43+182.364+488.198+132.364+488.01+117.241C487.823+102.118+475.412+90.0098+460.289+90.1968L460.289+90.1982ZM460.793+130.938C453.784+131.025+448.032+125.414+447.946+118.405C447.859+111.397+453.47+105.645+460.479+105.558C467.487+105.471+473.239+111.083+473.326+118.091C473.412+125.1+467.801+130.851+460.793+130.938Z" opacity="1" fill="#ffffff"/>
<path d="M680.029+141.824C664.906+142.012+652.798+154.423+652.985+169.546C653.172+184.668+681.17+233.99+681.17+233.99C681.17+233.99+707.938+183.99+707.75+168.867C707.563+153.744+695.152+141.636+680.029+141.823L680.029+141.824ZM680.533+182.564C673.524+182.651+667.772+177.04+667.685+170.031C667.599+163.023+673.21+157.271+680.219+157.184C687.227+157.097+692.979+162.709+693.066+169.717C693.152+176.726+687.541+182.477+680.533+182.564Z" opacity="1" fill="#ffffff"/>
<path d="M344.258+650.919L291.263+650.919C288.993+650.917+287.153+649.077+287.151+646.807L287.151+623.965L287.151+623.965C287.088+612.988+292.908+602.818+302.404+597.311C311.901+591.804+323.618+591.804+333.115+597.311C342.611+602.818+348.431+612.988+348.368+623.965L348.368+646.807C348.366+649.076+346.527+650.916+344.258+650.919Z" opacity="1" fill="#000000"/>
<path d="M309.878+623.05C309.878+606.23+305.296+611.058+322.116+611.058C338.936+611.058+347.504+603.128+347.504+619.948C347.504+636.768+333.869+650.403+317.049+650.403C300.229+650.403+309.878+639.87+309.878+623.05Z" opacity="1" fill="#a0616a"/>
<path d="M430.642+824.845C436.699+826.525+443.055+823.411+445.439+817.595C447.823+811.78+445.483+805.1+439.99+802.045L413.653+772.166L391.377+776.979L422.707+807.665C421.148+810.968+421.132+814.791+422.663+818.107C424.194+821.423+427.116+823.89+430.641+824.845L430.642+824.845Z" opacity="1" fill="#a0616a"/>
<path d="M343.993+717.875L409.636+800.275L429.645+791.089L352.489+670.966L343.993+717.875Z" opacity="1" fill="#f2f2f2"/>
<path d="M182.091+1027.06C182.091+1023.09+185.315+1019.86+189.291+1019.86C193.267+1019.86+196.491+1023.09+196.491+1027.06C196.491+1031.04+193.267+1034.26+189.291+1034.26C185.315+1034.26+182.091+1031.04+182.091+1027.06Z" opacity="1" fill="#3f3d56"/>
<path d="M194.527+882.087C194.527+882.087+211.545+830.38+212.854+826.78C214.163+823.18+227.908+829.071+231.508+830.053C235.108+831.035+234.126+834.635+234.126+834.635L215.799+887.651L221.362+890.269L238.379+836.926C248.197+826.781+240.997+826.126+240.997+826.126C240.997+826.126+220.052+818.926+212.197+818.272C204.342+817.618+207.29+827.105+207.29+827.105L188.309+877.505L194.527+882.087Z" opacity="1" fill="#3f3d56"/>
<path d="M235.434+894.523L235.434+894.523C233.019+891.06+229.59+888.431+225.619+886.999C225.478+886.946+225.315+886.887+225.128+886.822C216.112+883.67+153.295+866.709+153.295+866.709C153.295+866.709+140.859+862.127+135.295+874.563C129.731+886.999+96.678+990.086+96.678+990.086C96.678+990.086+161.325+1024.66+180.172+1028.42C181.335+1028.7+182.536+1028.8+183.729+1028.7C186.932+1028.26+190.085+1027.51+193.144+1026.45C196.526+1025.35+199.744+1023.79+202.708+1021.83L239.361+912.195C239.361+912.195+244.597+900.088+235.434+894.523Z" opacity="1" fill="#2adac5"/>
<path d="M235.434+894.523L235.434+894.523C233.019+891.06+229.59+888.432+225.619+886.999C225.478+886.947+225.315+886.888+225.128+886.822C228.093+892.022+229.219+900.089+229.219+900.089C229.219+900.089+193.219+1007.1+189.948+1017.25C187.454+1024.98+182.424+1027.61+180.173+1028.42C181.337+1028.7+182.537+1028.8+183.73+1028.7C186.933+1028.26+190.086+1027.51+193.145+1026.45C194.039+1025.43+194.832+1024.32+195.511+1023.14C195.511+1023.14+232.161+913.501+235.434+908.268C238.707+903.035+235.434+894.523+235.434+894.523Z" opacity="1" fill="#3f3d56"/>
<path d="M160.001+1027.23C160.001+1023.25+163.225+1020.03+167.201+1020.03C171.177+1020.03+174.401+1023.25+174.401+1027.23C174.401+1031.2+171.177+1034.43+167.201+1034.43C163.225+1034.43+160.001+1031.2+160.001+1027.23Z" opacity="1" fill="#3f3d56"/>
<path d="M90.131+996.956C90.131+992.98+93.3545+989.756+97.331+989.756C101.307+989.756+104.531+992.98+104.531+996.956C104.531+1000.93+101.307+1004.16+97.331+1004.16C93.3545+1004.16+90.131+1000.93+90.131+996.956Z" opacity="1" fill="#3f3d56"/>
<path d="M224.237+831.163C218.243+833.06+211.779+830.174+209.188+824.446C206.597+818.719+208.7+811.958+214.082+808.71L239.338+777.91L261.771+781.926L231.553+813.71C233.229+816.955+233.381+820.776+231.969+824.144C230.557+827.513+227.725+830.082+224.236+831.162L224.237+831.163Z" opacity="1" fill="#a0616a"/>
<path d="M396.37+966.679L412.014+966.433L410.132+1019.76L396.372+1019.76L396.37+966.679Z" opacity="1" fill="#a0616a"/>
<path d="M392.862+1015.26L419.962+1015.26C429.499+1015.26+437.231+1023+437.232+1032.53L437.232+1033.1L392.862+1033.1L392.862+1015.26Z" opacity="1" fill="#ffffff"/>
<path d="M292.788+952.539L309.878+963.511L275.693+1004.64L264.113+997.204L292.788+952.539Z" opacity="1" fill="#a0616a"/>
<path d="M263.586+991.526L286.386+1006.17L286.386+1006.17C294.411+1011.32+296.739+1022+291.586+1030.03L291.286+1030.5L253.949+1006.53L263.586+991.526Z" opacity="1" fill="#ffffff"/>
<path d="M286.699+789.717C286.699+789.717+324.671+663.6+336.874+661.894C349.077+660.188+368.739+694.254+368.739+694.254C394.231+726.779+420.518+832.137+420.518+832.137C420.518+832.137+376.697+834.879+344.664+851.922C312.631+868.965+274.827+851.059+274.827+851.059L286.699+789.717Z" opacity="1" fill="#f2f2f2"/>
<path d="M286.699+789.717C286.699+789.717+324.671+663.6+336.874+661.894C349.077+660.188+363.745+694.6+363.745+694.6C376.445+747.1+420.518+832.137+420.518+832.137C420.518+832.137+376.697+834.879+344.664+851.922C312.631+868.965+274.827+851.059+274.827+851.059L286.699+789.717Z" opacity="0.1" fill="#000000"/>
<path d="M317.852+751.983L317.852+815.356L310.393+907.156L273.133+976.597L290.917+989.297L341.727+923.244L361.827+857.657L393.388+1002.85L417.093+1001.16L400.628+799.856L369.379+743.194L317.852+751.983Z" opacity="1" fill="#3f3d56"/>
<path d="M356.137+690.683C367.993+702.539+356.984+715.241+356.984+715.241L370.533+745.727L317.182+760.127L298.538+676.817L311.238+663.268C336.643+662.421+336.657+661.895+336.657+661.895C341.111+666.251+356.137+690.683+356.137+690.683Z" opacity="1" fill="#3f3d56"/>
<path d="M296.095+668.403L296.095+668.403C286.978+675.108+284.172+687.494+289.509+697.474C295.621+709.142+302.196+727.215+298.809+747.056C292.674+782.964+273.009+810.245+262.055+819.007C258.241+822.057+258.108+826.499+258.668+829.688C260.232+838.597+268.868+848.707+274.845+850.734C275.247+850.869+275.669+850.936+276.093+850.934C285.799+850.934+309.675+820.024+337.112+759.634C354.199+722.025+341.798+691.871+328.386+673.196C324.83+668.261+319.446+664.954+313.436+664.013C307.426+663.072+301.289+664.576+296.395+668.189L296.095+668.403Z" opacity="1" fill="#ffffff"/>
<path d="M321.403+704.763L244.354+805.858L224.03+797.39L296.858+674.598L321.403+704.763Z" opacity="1" fill="#ffffff"/>
<path d="M355.611+626.25L323.211+626.25L322.879+621.598L321.218+626.25L316.228+626.25L315.569+617.029L312.276+626.25L302.621+626.25L302.621+625.792C302.636+612.426+313.468+601.594+326.834+601.579L331.403+601.579C344.767+601.597+355.595+612.428+355.61+625.792L355.611+626.25Z" opacity="1" fill="#000000"/>
<path d="M322.94+655.183C322.696+655.183+322.452+655.161+322.212+655.119L298.484+650.932L298.484+611.716L324.608+611.716L323.961+612.47C314.961+622.963+321.742+639.978+326.583+649.186C327.311+650.562+327.186+652.234+326.261+653.486C325.49+654.552+324.255+655.183+322.94+655.183Z" opacity="1" fill="#000000"/>
<g opacity="1">
<path d="M309.8+1225.2L309.8+1202.5L328.8+1202.5C330.867+1202.5+332.817+1202.62+334.65+1202.85C336.483+1203.08+338.1+1203.6+339.5+1204.4C340.9+1205.2+342+1206.33+342.8+1207.8C343.6+1209.27+344+1211.27+344+1213.8C344+1217.6+342.817+1220.45+340.45+1222.35C338.083+1224.25+334.2+1225.2+328.8+1225.2L309.8+1225.2ZM300.3+1194.5L300.3+1265.9L334.8+1265.9C338.333+1265.9+341.45+1265.32+344.15+1264.15C346.85+1262.98+349.117+1261.45+350.95+1259.55C352.783+1257.65+354.167+1255.47+355.1+1253C356.033+1250.53+356.5+1248+356.5+1245.4C356.5+1241+355.333+1237.27+353+1234.2C350.667+1231.13+347.3+1229.13+342.9+1228.2L342.9+1228C346.3+1226.67+348.917+1224.62+350.75+1221.85C352.583+1219.08+353.5+1215.8+353.5+1212C353.5+1208.4+352.683+1205.37+351.05+1202.9C349.417+1200.43+347.433+1198.5+345.1+1197.1C344.033+1196.43+342.75+1195.93+341.25+1195.6C339.75+1195.27+338.133+1195.02+336.4+1194.85C334.667+1194.68+332.917+1194.58+331.15+1194.55C329.383+1194.52+327.733+1194.5+326.2+1194.5L300.3+1194.5ZM309.8+1257.9L309.8+1233.2L331.5+1233.2C333.5+1233.2+335.433+1233.38+337.3+1233.75C339.167+1234.12+340.817+1234.75+342.25+1235.65C343.683+1236.55+344.833+1237.77+345.7+1239.3C346.567+1240.83+347+1242.77+347+1245.1C347+1249.1+345.817+1252.23+343.45+1254.5C341.083+1256.77+337.8+1257.9+333.6+1257.9L309.8+1257.9Z" opacity="1" fill="#ffffff"/>
<path d="M410.2+1265.9L410.2+1214.2L401.7+1214.2L401.7+1243.4C401.7+1245.73+401.383+1247.88+400.75+1249.85C400.117+1251.82+399.167+1253.53+397.9+1255C396.633+1256.47+395.05+1257.6+393.15+1258.4C391.25+1259.2+389+1259.6+386.4+1259.6C383.133+1259.6+380.567+1258.67+378.7+1256.8C376.833+1254.93+375.9+1252.4+375.9+1249.2L375.9+1214.2L367.4+1214.2L367.4+1248.2C367.4+1251+367.683+1253.55+368.25+1255.85C368.817+1258.15+369.8+1260.13+371.2+1261.8C372.6+1263.47+374.433+1264.75+376.7+1265.65C378.967+1266.55+381.8+1267+385.2+1267C389+1267+392.3+1266.25+395.1+1264.75C397.9+1263.25+400.2+1260.9+402+1257.7L402.2+1257.7L402.2+1265.9L410.2+1265.9Z" opacity="1" fill="#ffffff"/>
<path d="M458.1+1230.8L466.9+1230.8C466.567+1227.73+465.767+1225.08+464.5+1222.85C463.233+1220.62+461.617+1218.77+459.65+1217.3C457.683+1215.83+455.417+1214.75+452.85+1214.05C450.283+1213.35+447.533+1213+444.6+1213C440.533+1213+436.967+1213.72+433.9+1215.15C430.833+1216.58+428.283+1218.55+426.25+1221.05C424.217+1223.55+422.7+1226.48+421.7+1229.85C420.7+1233.22+420.2+1236.83+420.2+1240.7C420.2+1244.57+420.717+1248.12+421.75+1251.35C422.783+1254.58+424.317+1257.37+426.35+1259.7C428.383+1262.03+430.917+1263.83+433.95+1265.1C436.983+1266.37+440.467+1267+444.4+1267C451+1267+456.217+1265.27+460.05+1261.8C463.883+1258.33+466.267+1253.4+467.2+1247L458.5+1247C457.967+1251+456.517+1254.1+454.15+1256.3C451.783+1258.5+448.5+1259.6+444.3+1259.6C441.633+1259.6+439.333+1259.07+437.4+1258C435.467+1256.93+433.9+1255.52+432.7+1253.75C431.5+1251.98+430.617+1249.97+430.05+1247.7C429.483+1245.43+429.2+1243.1+429.2+1240.7C429.2+1238.1+429.467+1235.58+430+1233.15C430.533+1230.72+431.417+1228.57+432.65+1226.7C433.883+1224.83+435.533+1223.33+437.6+1222.2C439.667+1221.07+442.233+1220.5+445.3+1220.5C448.9+1220.5+451.767+1221.4+453.9+1223.2C456.033+1225+457.433+1227.53+458.1+1230.8Z" opacity="1" fill="#ffffff"/>
<path d="M477.2+1194.5L477.2+1265.9L485.7+1265.9L485.7+1246.3L493.7+1238.9L511.4+1265.9L522.2+1265.9L500.2+1233L520.7+1214.2L509.3+1214.2L485.7+1236.8L485.7+1194.5L477.2+1194.5Z" opacity="1" fill="#ffffff"/>
<path d="M564.5+1235.1L534.8+1235.1C534.933+1233.1+535.367+1231.22+536.1+1229.45C536.833+1227.68+537.833+1226.13+539.1+1224.8C540.367+1223.47+541.883+1222.42+543.65+1221.65C545.417+1220.88+547.4+1220.5+549.6+1220.5C551.733+1220.5+553.683+1220.88+555.45+1221.65C557.217+1222.42+558.75+1223.45+560.05+1224.75C561.35+1226.05+562.383+1227.6+563.15+1229.4C563.917+1231.2+564.367+1233.1+564.5+1235.1ZM572.7+1249.5L564.3+1249.5C563.567+1252.9+562.05+1255.43+559.75+1257.1C557.45+1258.77+554.5+1259.6+550.9+1259.6C548.1+1259.6+545.667+1259.13+543.6+1258.2C541.533+1257.27+539.833+1256.02+538.5+1254.45C537.167+1252.88+536.2+1251.08+535.6+1249.05C535+1247.02+534.733+1244.87+534.8+1242.6L573.5+1242.6C573.633+1239.47+573.35+1236.17+572.65+1232.7C571.95+1229.23+570.683+1226.03+568.85+1223.1C567.017+1220.17+564.583+1217.75+561.55+1215.85C558.517+1213.95+554.7+1213+550.1+1213C546.567+1213+543.317+1213.67+540.35+1215C537.383+1216.33+534.817+1218.2+532.65+1220.6C530.483+1223+528.8+1225.83+527.6+1229.1C526.4+1232.37+525.8+1235.97+525.8+1239.9C525.933+1243.83+526.517+1247.47+527.55+1250.8C528.583+1254.13+530.133+1257+532.2+1259.4C534.267+1261.8+536.817+1263.67+539.85+1265C542.883+1266.33+546.467+1267+550.6+1267C556.467+1267+561.333+1265.53+565.2+1262.6C569.067+1259.67+571.567+1255.3+572.7+1249.5Z" opacity="1" fill="#ffffff"/>
<path d="M594.1+1214.2L594.1+1198.7L585.6+1198.7L585.6+1214.2L576.8+1214.2L576.8+1221.7L585.6+1221.7L585.6+1254.6C585.6+1257+585.833+1258.93+586.3+1260.4C586.767+1261.87+587.483+1263+588.45+1263.8C589.417+1264.6+590.683+1265.15+592.25+1265.45C593.817+1265.75+595.7+1265.9+597.9+1265.9L604.4+1265.9L604.4+1258.4L600.5+1258.4C599.167+1258.4+598.083+1258.35+597.25+1258.25C596.417+1258.15+595.767+1257.93+595.3+1257.6C594.833+1257.27+594.517+1256.8+594.35+1256.2C594.183+1255.6+594.1+1254.8+594.1+1253.8L594.1+1221.7L604.4+1221.7L604.4+1214.2L594.1+1214.2Z" opacity="1" fill="#ffffff"/>
<path d="M643.2+1194.5L643.2+1265.9L652.2+1265.9L652.2+1206.5L652.4+1206.5L674.7+1265.9L682.8+1265.9L705.1+1206.5L705.3+1206.5L705.3+1265.9L714.3+1265.9L714.3+1194.5L701.3+1194.5L678.7+1254.5L656.2+1194.5L643.2+1194.5Z" opacity="1" fill="#ffffff"/>
<path d="M774.5+1265.7C773.033+1266.57+771+1267+768.4+1267C766.2+1267+764.45+1266.38+763.15+1265.15C761.85+1263.92+761.2+1261.9+761.2+1259.1C758.867+1261.9+756.15+1263.92+753.05+1265.15C749.95+1266.38+746.6+1267+743+1267C740.667+1267+738.45+1266.73+736.35+1266.2C734.25+1265.67+732.433+1264.83+730.9+1263.7C729.367+1262.57+728.15+1261.08+727.25+1259.25C726.35+1257.42+725.9+1255.2+725.9+1252.6C725.9+1249.67+726.4+1247.27+727.4+1245.4C728.4+1243.53+729.717+1242.02+731.35+1240.85C732.983+1239.68+734.85+1238.8+736.95+1238.2C739.05+1237.6+741.2+1237.1+743.4+1236.7C745.733+1236.23+747.95+1235.88+750.05+1235.65C752.15+1235.42+754+1235.08+755.6+1234.65C757.2+1234.22+758.467+1233.58+759.4+1232.75C760.333+1231.92+760.8+1230.7+760.8+1229.1C760.8+1227.23+760.45+1225.73+759.75+1224.6C759.05+1223.47+758.15+1222.6+757.05+1222C755.95+1221.4+754.717+1221+753.35+1220.8C751.983+1220.6+750.633+1220.5+749.3+1220.5C745.7+1220.5+742.7+1221.18+740.3+1222.55C737.9+1223.92+736.6+1226.5+736.4+1230.3L727.9+1230.3C728.033+1227.1+728.7+1224.4+729.9+1222.2C731.1+1220+732.7+1218.22+734.7+1216.85C736.7+1215.48+738.983+1214.5+741.55+1213.9C744.117+1213.3+746.867+1213+749.8+1213C752.133+1213+754.45+1213.17+756.75+1213.5C759.05+1213.83+761.133+1214.52+763+1215.55C764.867+1216.58+766.367+1218.03+767.5+1219.9C768.633+1221.77+769.2+1224.2+769.2+1227.2L769.2+1253.8C769.2+1255.8+769.317+1257.27+769.55+1258.2C769.783+1259.13+770.567+1259.6+771.9+1259.6C772.633+1259.6+773.5+1259.43+774.5+1259.1L774.5+1265.7ZM760.7+1239.2C759.633+1240+758.233+1240.58+756.5+1240.95C754.767+1241.32+752.95+1241.62+751.05+1241.85C749.15+1242.08+747.233+1242.35+745.3+1242.65C743.367+1242.95+741.633+1243.43+740.1+1244.1C738.567+1244.77+737.317+1245.72+736.35+1246.95C735.383+1248.18+734.9+1249.87+734.9+1252C734.9+1253.4+735.183+1254.58+735.75+1255.55C736.317+1256.52+737.05+1257.3+737.95+1257.9C738.85+1258.5+739.9+1258.93+741.1+1259.2C742.3+1259.47+743.567+1259.6+744.9+1259.6C747.7+1259.6+750.1+1259.22+752.1+1258.45C754.1+1257.68+755.733+1256.72+757+1255.55C758.267+1254.38+759.2+1253.12+759.8+1251.75C760.4+1250.38+760.7+1249.1+760.7+1247.9L760.7+1239.2Z" opacity="1" fill="#ffffff"/>
<path d="M782.7+1214.2L782.7+1285.6L791.2+1285.6L791.2+1259L791.4+1259C792.333+1260.53+793.483+1261.82+794.85+1262.85C796.217+1263.88+797.667+1264.7+799.2+1265.3C800.733+1265.9+802.283+1266.33+803.85+1266.6C805.417+1266.87+806.833+1267+808.1+1267C812.033+1267+815.483+1266.3+818.45+1264.9C821.417+1263.5+823.883+1261.58+825.85+1259.15C827.817+1256.72+829.283+1253.87+830.25+1250.6C831.217+1247.33+831.7+1243.87+831.7+1240.2C831.7+1236.53+831.2+1233.07+830.2+1229.8C829.2+1226.53+827.717+1223.65+825.75+1221.15C823.783+1218.65+821.317+1216.67+818.35+1215.2C815.383+1213.73+811.9+1213+807.9+1213C804.3+1213+801+1213.65+798+1214.95C795+1216.25+792.8+1218.33+791.4+1221.2L791.2+1221.2L791.2+1214.2L782.7+1214.2ZM822.7+1239.6C822.7+1242.13+822.433+1244.6+821.9+1247C821.367+1249.4+820.5+1251.53+819.3+1253.4C818.1+1255.27+816.517+1256.77+814.55+1257.9C812.583+1259.03+810.133+1259.6+807.2+1259.6C804.267+1259.6+801.767+1259.05+799.7+1257.95C797.633+1256.85+795.95+1255.4+794.65+1253.6C793.35+1251.8+792.4+1249.72+791.8+1247.35C791.2+1244.98+790.9+1242.53+790.9+1240C790.9+1237.6+791.183+1235.23+791.75+1232.9C792.317+1230.57+793.233+1228.48+794.5+1226.65C795.767+1224.82+797.4+1223.33+799.4+1222.2C801.4+1221.07+803.833+1220.5+806.7+1220.5C809.433+1220.5+811.817+1221.03+813.85+1222.1C815.883+1223.17+817.55+1224.6+818.85+1226.4C820.15+1228.2+821.117+1230.25+821.75+1232.55C822.383+1234.85+822.7+1237.2+822.7+1239.6Z" opacity="1" fill="#ffffff"/>
</g>
</g>
</svg>
